<svg width="1024" height="1024" viewBox="0 0 1024 1024" fill="none" xmlns="http://www.w3.org/2000/svg">
<g clip-path="url(#clip0_2009_59)">
<path d="M1152 0C1152 70.6924 1094.44 128 1023.75 128C1023.12 128 1022.8 128 1022.61 128.001C952.222 128.217 895.217 185.222 895.001 255.607C895 255.804 895 256.036 895 256.5V615.2C895 686.887 895 722.73 881.049 750.111C868.777 774.196 849.196 793.777 825.111 806.049C797.73 820 761.887 820 690.2 820H333.8C262.113 820 226.27 820 198.889 806.049C174.804 793.777 155.223 774.196 142.951 750.111C129 722.73 129 686.887 129 615.2V256.5C129 256.036 129 255.804 128.999 255.607C128.783 185.222 71.7783 128.217 1.3927 128.001C1.19635 128 0.880738 128 0.249514 128C-70.4429 128 -128 70.6924 -128 0C-128 -70.6924 -70.6924 -128 1.90735e-06 -128H1024C1094.69 -128 1152 -70.6924 1152 0Z" fill="black" style="fill:black;fill-opacity:1;"/>
</g>
<defs>
<clipPath id="clip0_2009_59">
<rect width="1024" height="1024" fill="white" style="fill:white;fill-opacity:1;"/>
</clipPath>
</defs>
</svg>
